G04 #@! TF.GenerationSoftware,KiCad,Pcbnew,(5.1.6)-1*
G04 #@! TF.CreationDate,2021-03-05T06:26:53-03:00*
G04 #@! TF.ProjectId,switch_iot_ac,73776974-6368-45f6-996f-745f61632e6b,rev?*
G04 #@! TF.SameCoordinates,PXb9fc990PY4221330*
G04 #@! TF.FileFunction,Soldermask,Top*
G04 #@! TF.FilePolarity,Negative*
%FSLAX46Y46*%
G04 Gerber Fmt 4.6, Leading zero omitted, Abs format (unit mm)*
G04 Created by KiCad (PCBNEW (5.1.6)-1) date 2021-03-05 06:26:53*
%MOMM*%
%LPD*%
G01*
G04 APERTURE LIST*
G04 #@! TA.AperFunction,Profile*
%ADD10C,0.050000*%
G04 #@! TD*
%ADD11O,1.800000X1.800000*%
%ADD12R,1.800000X1.800000*%
%ADD13C,3.100000*%
%ADD14R,3.100000X3.100000*%
%ADD15C,2.400000*%
%ADD16R,2.100000X2.400000*%
%ADD17O,2.100000X1.800000*%
%ADD18C,1.700000*%
%ADD19R,1.700000X1.700000*%
G04 APERTURE END LIST*
D10*
X43688000Y35941000D02*
X43688000Y203200D01*
X43688000Y35941000D02*
X152400Y35941000D01*
X152400Y203200D02*
X152400Y35941000D01*
X43688000Y203200D02*
X152400Y203200D01*
D11*
X24663400Y7162800D03*
X24663400Y4622800D03*
X27203400Y7162800D03*
X27203400Y4622800D03*
X29743400Y7162800D03*
X29743400Y4622800D03*
X32283400Y7162800D03*
D12*
X32283400Y4622800D03*
D13*
X38506400Y27863800D03*
D14*
X38506400Y32943800D03*
G36*
G01*
X36519800Y4052400D02*
X35209800Y4052400D01*
G75*
G02*
X34939800Y4322400I0J270000D01*
G01*
X34939800Y5132400D01*
G75*
G02*
X35209800Y5402400I270000J0D01*
G01*
X36519800Y5402400D01*
G75*
G02*
X36789800Y5132400I0J-270000D01*
G01*
X36789800Y4322400D01*
G75*
G02*
X36519800Y4052400I-270000J0D01*
G01*
G37*
G36*
G01*
X36519800Y1252400D02*
X35209800Y1252400D01*
G75*
G02*
X34939800Y1522400I0J270000D01*
G01*
X34939800Y2332400D01*
G75*
G02*
X35209800Y2602400I270000J0D01*
G01*
X36519800Y2602400D01*
G75*
G02*
X36789800Y2332400I0J-270000D01*
G01*
X36789800Y1522400D01*
G75*
G02*
X36519800Y1252400I-270000J0D01*
G01*
G37*
G36*
G01*
X33381000Y12279800D02*
X34691000Y12279800D01*
G75*
G02*
X34961000Y12009800I0J-270000D01*
G01*
X34961000Y11199800D01*
G75*
G02*
X34691000Y10929800I-270000J0D01*
G01*
X33381000Y10929800D01*
G75*
G02*
X33111000Y11199800I0J270000D01*
G01*
X33111000Y12009800D01*
G75*
G02*
X33381000Y12279800I270000J0D01*
G01*
G37*
G36*
G01*
X33381000Y15079800D02*
X34691000Y15079800D01*
G75*
G02*
X34961000Y14809800I0J-270000D01*
G01*
X34961000Y13999800D01*
G75*
G02*
X34691000Y13729800I-270000J0D01*
G01*
X33381000Y13729800D01*
G75*
G02*
X33111000Y13999800I0J270000D01*
G01*
X33111000Y14809800D01*
G75*
G02*
X33381000Y15079800I270000J0D01*
G01*
G37*
D15*
X18988400Y3518400D03*
X13788400Y32918400D03*
D16*
X8788400Y32918400D03*
D15*
X3588400Y3518400D03*
D13*
X39268400Y14020800D03*
D14*
X39268400Y19100800D03*
D17*
X39370000Y4688200D03*
G36*
G01*
X38584706Y8088200D02*
X40155294Y8088200D01*
G75*
G02*
X40420000Y7823494I0J-264706D01*
G01*
X40420000Y6552906D01*
G75*
G02*
X40155294Y6288200I-264706J0D01*
G01*
X38584706Y6288200D01*
G75*
G02*
X38320000Y6552906I0J264706D01*
G01*
X38320000Y7823494D01*
G75*
G02*
X38584706Y8088200I264706J0D01*
G01*
G37*
G36*
G01*
X20052200Y8224200D02*
X20052200Y6914200D01*
G75*
G02*
X19782200Y6644200I-270000J0D01*
G01*
X18972200Y6644200D01*
G75*
G02*
X18702200Y6914200I0J270000D01*
G01*
X18702200Y8224200D01*
G75*
G02*
X18972200Y8494200I270000J0D01*
G01*
X19782200Y8494200D01*
G75*
G02*
X20052200Y8224200I0J-270000D01*
G01*
G37*
G36*
G01*
X22852200Y8224200D02*
X22852200Y6914200D01*
G75*
G02*
X22582200Y6644200I-270000J0D01*
G01*
X21772200Y6644200D01*
G75*
G02*
X21502200Y6914200I0J270000D01*
G01*
X21502200Y8224200D01*
G75*
G02*
X21772200Y8494200I270000J0D01*
G01*
X22582200Y8494200D01*
G75*
G02*
X22852200Y8224200I0J-270000D01*
G01*
G37*
D18*
X25363800Y13614400D03*
D19*
X27863800Y13614400D03*
M02*
