M48
; DRILL file {KiCad (5.1.6)-1} date 03/05/21 06:26:55
; FORMAT={-:-/ absolute / metric / decimal}
; #@! TF.CreationDate,2021-03-05T06:26:55-03:00
; #@! TF.GenerationSoftware,Kicad,Pcbnew,(5.1.6)-1
; #@! TF.FileFunction,Plated,1,2,PTH
FMAT,2
METRIC
T1C0.800
T2C0.900
T3C1.000
T4C1.520
%
G90
G05
T1
X25.364Y13.614
X27.864Y13.614
T2
X24.663Y7.163
X24.663Y4.623
X27.203Y7.163
X27.203Y4.623
X29.743Y7.163
X29.743Y4.623
X32.283Y7.163
X32.283Y4.623
T3
X3.588Y3.518
X8.788Y32.918
X13.788Y32.918
X18.988Y3.518
X39.37Y7.188
X39.37Y4.688
T4
X39.268Y19.101
X39.268Y14.021
X38.506Y32.944
X38.506Y27.864
T0
M30
